<svg width="40" height="40" viewBox="0 0 40 40" fill="none" xmlns="http://www.w3.org/2000/svg">
<rect x="0.5" y="0.5" width="39" height="39" rx="19.5" stroke="#0A5DE9"/>
<path d="M20 12C17.2358 12 15 14.2358 15 17C15 17.4142 15.3358 17.75 15.75 17.75C16.1642 17.75 16.5 17.4142 16.5 17C16.5 15.0642 18.0642 13.5 20 13.5C21.9358 13.5 23.5 15.0642 23.5 17C23.5 17.8518 23.2785 18.4195 22.9711 18.8595C22.6472 19.3232 22.2043 19.6827 21.6694 20.0917C21.624 20.1264 21.578 20.1615 21.5313 20.1969C20.5209 20.9651 19.25 21.9312 19.25 24V24.25C19.25 24.6642 19.5858 25 20 25C20.4142 25 20.75 24.6642 20.75 24.25V24C20.75 22.6827 21.464 22.1369 22.5353 21.3179L22.5806 21.2833C23.1082 20.8798 23.7278 20.3955 24.2008 19.7186C24.6902 19.018 25 18.1482 25 17C25 14.2358 22.7642 12 20 12ZM20 29C20.5523 29 21 28.5523 21 28C21 27.4477 20.5523 27 20 27C19.4477 27 19 27.4477 19 28C19 28.5523 19.4477 29 20 29Z" fill="#0A5DE9"/>
</svg>
